<svg width="41" height="40" viewBox="0 0 41 40" fill="none" xmlns="http://www.w3.org/2000/svg">
<path d="M20.5 0L34.6421 5.85786L40.5 20L34.6421 34.1421L20.5 40L6.35786 34.1421L0.5 20L6.35786 5.85786L20.5 0Z" fill="#679CFF" fill-opacity="0.06"/>
<path d="M20.5 7.5L29.3388 11.1612L33 20L29.3388 28.8388L20.5 32.5L11.6612 28.8388L8 20L11.6612 11.1612L20.5 7.5Z" fill="#679CFF"/>
<path d="M20.5 9L28.2782 12.2218L31.5 20L28.2782 27.7782L20.5 31L12.7218 27.7782L9.5 20L12.7218 12.2218L20.5 9Z" fill="#0E1014"/>
<path d="M20.5 11L26.864 13.636L29.5 20L26.864 26.364L20.5 29L14.136 26.364L11.5 20L14.136 13.636L20.5 11Z" fill="#679CFF"/>
</svg>
