<?xml version="1.0" encoding="UTF-8"?><!DOCTYPE svg>
<svg width="256" height="256" viewBox="0 0 256 256" fill="none" xmlns="http://www.w3.org/2000/svg">
<g filter="url(#filter0_d_1462_4447)">
<path d="M128 19L204.368 50.6325L236 127L204.368 203.368L128 235L51.6325 203.368L20 127L51.6325 50.6325L128 19Z" fill="url(#paint0_linear_1462_4447)" fill-opacity="0.03" shape-rendering="crispEdges"/>
<path d="M52.0152 51.0152L128 19.5412L203.985 51.0152L235.459 127L203.985 202.985L128 234.459L52.0152 202.985L20.5412 127L52.0152 51.0152Z" stroke="url(#paint1_linear_1462_4447)" shape-rendering="crispEdges"/>
</g>
<path d="M128 45L185.983 69.0172L210 127L185.983 184.983L128 209L70.0172 184.983L46 127L70.0172 69.0172L128 45Z" fill="#679CFF" fill-opacity="0.04"/>
<path d="M127.5 70L168.159 86.8414L185 127.5L168.159 168.159L127.5 185L86.8414 168.159L70 127.5L86.8414 86.8414L127.5 70Z" fill="#679CFF"/>
<defs>
<filter id="filter0_d_1462_4447" x="0" y="0" width="256" height="256" filterUnits="userSpaceOnUse" color-interpolation-filters="sRGB">
<feFlood flood-opacity="0" result="BackgroundImageFix"/>
<feColorMatrix in="SourceAlpha" type="matrix" values="0 0 0 0 0 0 0 0 0 0 0 0 0 0 0 0 0 0 127 0" result="hardAlpha"/>
<feOffset dy="1"/>
<feGaussianBlur stdDeviation="10"/>
<feComposite in2="hardAlpha" operator="out"/>
<feColorMatrix type="matrix" values="0 0 0 0 0 0 0 0 0 0 0 0 0 0 0 0 0 0 0.1 0"/>
<feBlend mode="normal" in2="BackgroundImageFix" result="effect1_dropShadow_1462_4447"/>
<feBlend mode="normal" in="SourceGraphic" in2="effect1_dropShadow_1462_4447" result="shape"/>
</filter>
<linearGradient id="paint0_linear_1462_4447" x1="59.5" y1="52.5" x2="215" y2="223.5" gradientUnits="userSpaceOnUse">
<stop stop-color="#FFFEFE"/>
<stop offset="0.0001" stop-color="#FFFEFE"/>
<stop offset="1" stop-color="#FFFEFE" stop-opacity="0"/>
</linearGradient>
<linearGradient id="paint1_linear_1462_4447" x1="128" y1="19" x2="128" y2="235" gradientUnits="userSpaceOnUse">
<stop stop-color="#152239"/>
<stop offset="1" stop-color="#212B33" stop-opacity="0"/>
</linearGradient>
</defs>
</svg>
