<svg width="20" height="20" viewBox="0 0 20 20" fill="none" xmlns="http://www.w3.org/2000/svg">
<path fill-rule="evenodd" clip-rule="evenodd" d="M2.9731 1.66669C2.98195 1.66669 2.99081 1.66669 2.99968 1.66669L3.66634 1.66669C3.67521 1.66669 3.68407 1.66669 3.69292 1.66669C3.90324 1.66666 4.10807 1.66664 4.28154 1.68081C4.47203 1.69638 4.69681 1.7331 4.923 1.84835C5.2366 2.00814 5.49157 2.2631 5.65136 2.57671C5.7666 2.80289 5.80333 3.02767 5.81889 3.21817C5.83306 3.39163 5.83304 3.59646 5.83301 3.80678C5.83301 3.81563 5.83301 3.82449 5.83301 3.83336L5.83301 16.1933C5.83304 16.4036 5.83306 16.6084 5.81889 16.7819C5.80333 16.9724 5.7666 17.1972 5.65136 17.4233C5.49157 17.7369 5.2366 17.9919 4.923 18.1517C4.69681 18.267 4.47203 18.3037 4.28154 18.3192C4.10808 18.3334 3.90325 18.3334 3.69294 18.3334H2.97308C2.76277 18.3334 2.55795 18.3334 2.38449 18.3192C2.19399 18.3037 1.96921 18.267 1.74303 18.1517C1.42942 17.9919 1.17446 17.7369 1.01467 17.4233C0.89942 17.1972 0.862697 16.9724 0.847133 16.7819C0.832961 16.6084 0.832985 16.4036 0.83301 16.1933L0.833012 3.83336C0.833012 3.82449 0.833011 3.81563 0.83301 3.80678C0.832985 3.59646 0.83296 3.39163 0.847133 3.21817C0.862697 3.02767 0.89942 2.80289 1.01467 2.57671C1.17446 2.2631 1.42942 2.00814 1.74303 1.84835C1.96921 1.7331 2.19399 1.69638 2.38449 1.68081C2.55795 1.66664 2.76278 1.66666 2.9731 1.66669Z" fill="currentColor"/>
<path fill-rule="evenodd" clip-rule="evenodd" d="M9.63977 5.00002C9.64862 5.00003 9.65748 5.00003 9.66635 5.00003H10.333C10.3419 5.00003 10.3507 5.00003 10.3596 5.00002C10.5699 5 10.7747 4.99997 10.9482 5.01415C11.1387 5.02971 11.3635 5.06643 11.5897 5.18168C11.9033 5.34147 12.1582 5.59644 12.318 5.91004C12.4333 6.13623 12.47 6.36101 12.4856 6.5515C12.4997 6.72497 12.4997 6.92979 12.4997 7.14011C12.4997 7.14896 12.4997 7.15782 12.4997 7.16669L12.4997 16.1933C12.4997 16.4036 12.4997 16.6084 12.4856 16.7819C12.47 16.9724 12.4333 17.1972 12.318 17.4233C12.1582 17.7369 11.9033 17.9919 11.5897 18.1517C11.3635 18.267 11.1387 18.3037 10.9482 18.3192C10.7747 18.3334 10.5699 18.3334 10.3596 18.3334H9.63979C9.42946 18.3334 9.22463 18.3334 9.05116 18.3192C8.86067 18.3037 8.63589 18.267 8.4097 18.1517C8.0961 17.9919 7.84113 17.7369 7.68134 17.4233C7.56609 17.1972 7.52937 16.9724 7.51381 16.7819C7.49964 16.6084 7.49966 16.4036 7.49968 16.1933L7.49969 7.16669C7.49969 7.15782 7.49969 7.14896 7.49968 7.14011C7.49966 6.92979 7.49964 6.72497 7.51381 6.5515C7.52937 6.36101 7.56609 6.13623 7.68134 5.91004C7.84113 5.59644 8.0961 5.34147 8.4097 5.18168C8.63589 5.06643 8.86067 5.02971 9.05116 5.01415C9.22463 4.99997 9.42945 5 9.63977 5.00002Z" fill="currentColor"/>
<path fill-rule="evenodd" clip-rule="evenodd" d="M16.3064 8.33336C16.3153 8.33336 16.3241 8.33336 16.333 8.33336H16.9997C17.0085 8.33336 17.0174 8.33336 17.0263 8.33336C17.2366 8.33333 17.4414 8.33331 17.6149 8.34748C17.8054 8.36304 18.0301 8.39977 18.2563 8.51501C18.5699 8.6748 18.8249 8.92977 18.9847 9.24337C19.0999 9.46956 19.1367 9.69434 19.1522 9.88483C19.1664 10.0583 19.1664 10.2631 19.1663 10.4734C19.1663 10.4823 19.1663 10.4912 19.1663 10.5L19.1663 16.1933C19.1664 16.4036 19.1664 16.6084 19.1522 16.7819C19.1367 16.9724 19.0999 17.1972 18.9847 17.4233C18.8249 17.7369 18.5699 17.9919 18.2563 18.1517C18.0301 18.267 17.8054 18.3037 17.6149 18.3192C17.4414 18.3334 17.2366 18.3334 17.0262 18.3334H16.3064C16.0961 18.3334 15.8913 18.3334 15.7178 18.3192C15.5273 18.3037 15.3025 18.267 15.0764 18.1517C14.7628 17.9919 14.5078 17.7369 14.348 17.4233C14.2328 17.1972 14.196 16.9724 14.1805 16.7819C14.1663 16.6084 14.1663 16.4036 14.1663 16.1933L14.1663 10.5C14.1663 10.4912 14.1663 10.4823 14.1663 10.4734C14.1663 10.2631 14.1663 10.0583 14.1805 9.88483C14.196 9.69434 14.2328 9.46956 14.348 9.24337C14.5078 8.92977 14.7628 8.6748 15.0764 8.51501C15.3025 8.39977 15.5273 8.36304 15.7178 8.34748C15.8913 8.33331 16.0961 8.33333 16.3064 8.33336Z" fill="currentColor"/>
</svg>
