<svg width="20" height="20" viewBox="0 0 20 20" fill="none" xmlns="http://www.w3.org/2000/svg">
<path d="M15.5886 5.58928C15.914 5.26384 15.914 4.7362 15.5886 4.41076C15.2632 4.08533 14.7355 4.08533 14.4101 4.41076L9.99935 8.82151L5.5886 4.41076C5.26317 4.08533 4.73553 4.08533 4.41009 4.41076C4.08466 4.7362 4.08466 5.26384 4.41009 5.58928L8.82084 10L4.41009 14.4108C4.08466 14.7362 4.08466 15.2638 4.41009 15.5893C4.73553 15.9147 5.26317 15.9147 5.5886 15.5893L9.99935 11.1785L14.4101 15.5893C14.7355 15.9147 15.2632 15.9147 15.5886 15.5893C15.914 15.2638 15.914 14.7362 15.5886 14.4108L11.1779 10L15.5886 5.58928Z" fill="currentColor"/>
</svg>
