<svg width="20" height="20" viewBox="0 0 20 20" fill="none" xmlns="http://www.w3.org/2000/svg">
<path fill-rule="evenodd" clip-rule="evenodd" d="M10.8337 12.4854C12.6543 12.4215 14.3073 12.1496 15.5767 11.7258C16.3027 11.4835 16.9496 11.1762 17.4319 10.794C17.906 10.4183 18.3337 9.87446 18.3337 9.16665V4.16665C18.3337 3.45669 17.9012 2.91297 17.4268 2.53902C16.9429 2.15767 16.2943 1.85069 15.5672 1.60831C14.1041 1.12064 12.136 0.833313 10.0003 0.833313C7.86461 0.833313 5.8965 1.12064 4.4335 1.60831C3.70636 1.85069 3.05779 2.15767 2.5739 2.53902C2.0994 2.91297 1.66699 3.45669 1.66699 4.16665V9.16665C1.66699 9.87446 2.09465 10.4183 2.56871 10.794C3.05108 11.1762 3.69793 11.4835 4.42394 11.7258C5.69337 12.1496 7.34637 12.4215 9.16699 12.4854V14.3089C8.45665 14.56 7.89365 15.123 7.64258 15.8333H2.50033C2.04009 15.8333 1.66699 16.2064 1.66699 16.6666C1.66699 17.1269 2.04009 17.5 2.50033 17.5H7.64258C7.98578 18.471 8.91181 19.1666 10.0003 19.1666C11.0888 19.1666 12.0149 18.471 12.3581 17.5H17.5003C17.9606 17.5 18.3337 17.1269 18.3337 16.6666C18.3337 16.2064 17.9606 15.8333 17.5003 15.8333H12.3581C12.107 15.123 11.544 14.56 10.8337 14.3089V12.4854ZM3.33366 4.16659C3.33366 4.16659 3.33365 4.1623 3.3362 4.1539C3.33903 4.14462 3.34602 4.12627 3.36289 4.09879C3.39826 4.04117 3.47039 3.95454 3.60552 3.84804C3.88067 3.6312 4.33046 3.39948 4.96055 3.18945C6.21201 2.77229 7.9939 2.49998 10.0003 2.49998C12.0068 2.49998 13.7886 2.77229 15.0401 3.18945C15.6702 3.39948 16.12 3.6312 16.3951 3.84804C16.5303 3.95454 16.6024 4.04117 16.6378 4.09879C16.6546 4.12627 16.6616 4.14462 16.6644 4.1539C16.667 4.1623 16.667 4.16659 16.667 4.16659C16.667 4.16659 16.6669 4.17141 16.6644 4.17939C16.6616 4.18868 16.6546 4.20702 16.6378 4.23451C16.6024 4.29212 16.5303 4.37875 16.3951 4.48525C16.12 4.70209 15.6702 4.93381 15.0401 5.14384C13.7886 5.561 12.0068 5.83331 10.0003 5.83331C7.9939 5.83331 6.21201 5.561 4.96055 5.14384C4.33046 4.93381 3.88067 4.70209 3.60552 4.48525C3.47039 4.37875 3.39826 4.29212 3.36289 4.23451C3.34602 4.20702 3.33903 4.18868 3.3362 4.17939C3.33381 4.17151 3.33366 4.16659 3.33366 4.16659Z" fill="currentColor"/>
</svg>
