<svg width="20" height="20" viewBox="0 0 20 20" fill="none" xmlns="http://www.w3.org/2000/svg">
<path fill-rule="evenodd" clip-rule="evenodd" d="M6.52474 2.49998C6.18154 1.52899 5.25551 0.833313 4.16699 0.833313C2.78628 0.833313 1.66699 1.9526 1.66699 3.33331C1.66699 4.71402 2.78628 5.83331 4.16699 5.83331C5.25551 5.83331 6.18154 5.13764 6.52474 4.16665L9.16699 4.16665L9.16699 12.7011C9.16698 13.3718 9.16697 13.9255 9.20382 14.3765C9.24209 14.8449 9.32423 15.2755 9.5303 15.6799C9.84988 16.3072 10.3598 16.8171 10.987 17.1367C11.3915 17.3427 11.8221 17.4249 12.2905 17.4632C12.6265 17.4906 13.0196 17.4976 13.4757 17.4994C13.8187 18.4707 14.7449 19.1666 15.8337 19.1666C17.2144 19.1666 18.3337 18.0474 18.3337 16.6666C18.3337 15.2859 17.2144 14.1666 15.8337 14.1666C14.7454 14.1666 13.8196 14.862 13.4762 15.8326C13.0357 15.8308 12.7013 15.8245 12.4262 15.802C12.0608 15.7722 11.874 15.7181 11.7437 15.6517C11.4301 15.4919 11.1751 15.2369 11.0153 14.9233C10.9489 14.793 10.8948 14.6061 10.865 14.2408C10.8343 13.8657 10.8337 13.3805 10.8337 12.6666V10.8333L13.4759 10.8333C13.8191 11.8043 14.7451 12.5 15.8337 12.5C17.2144 12.5 18.3337 11.3807 18.3337 9.99998C18.3337 8.61927 17.2144 7.49998 15.8337 7.49998C14.7451 7.49998 13.8191 8.19565 13.4759 9.16665L10.8337 9.16665V4.16665L13.4759 4.16665C13.8191 5.13764 14.7451 5.83331 15.8337 5.83331C17.2144 5.83331 18.3337 4.71402 18.3337 3.33331C18.3337 1.9526 17.2144 0.833313 15.8337 0.833313C14.7451 0.833313 13.8191 1.52899 13.4759 2.49998L6.52474 2.49998Z" fill="currentColor"/>
</svg>
