<svg width="20" height="20" viewBox="0 0 20 20" fill="none" xmlns="http://www.w3.org/2000/svg">
<path fill-rule="evenodd" clip-rule="evenodd" d="M0.833008 5.13475C0.832994 4.69547 0.832982 4.31648 0.858485 4.00434C0.885402 3.67489 0.944832 3.34721 1.10549 3.03189C1.34518 2.56149 1.72763 2.17903 2.19803 1.93935C2.51335 1.77869 2.84103 1.71926 3.17049 1.69234C3.48263 1.66684 3.8616 1.66685 4.30089 1.66687L7.62189 1.66678C8.11652 1.66612 8.55151 1.66555 8.95147 1.8035C9.30178 1.92433 9.62085 2.12153 9.88558 2.38082C10.1878 2.67686 10.3819 3.06618 10.6025 3.50888L11.3479 5.00002H14.3674C15.0382 5.00001 15.5919 5 16.0429 5.03685C16.5113 5.07512 16.9419 5.15726 17.3463 5.36333C17.9735 5.68291 18.4835 6.19285 18.803 6.82005C19.0091 7.2245 19.0912 7.65509 19.1295 8.1235C19.1664 8.57449 19.1664 9.12812 19.1663 9.79892V13.5345C19.1664 14.2053 19.1664 14.7589 19.1295 15.2099C19.0912 15.6783 19.0091 16.1089 18.803 16.5133C18.4835 17.1405 17.9735 17.6505 17.3463 17.97C16.9419 18.1761 16.5113 18.2583 16.0429 18.2965C15.5919 18.3334 15.0382 18.3334 14.3674 18.3334H5.63195C4.96114 18.3334 4.40748 18.3334 3.95649 18.2965C3.48807 18.2583 3.05749 18.1761 2.65304 17.97C2.02583 17.6505 1.5159 17.1405 1.19632 16.5133C0.990245 16.1089 0.908108 15.6783 0.869837 15.2099C0.83299 14.7589 0.832998 14.2053 0.833008 13.5345V5.13475ZM7.51825 3.33353C8.17693 3.33353 8.30749 3.34441 8.40801 3.37908C8.52478 3.41936 8.63114 3.48509 8.71939 3.57152C8.79535 3.64592 8.86347 3.75784 9.15804 4.34697L9.48456 5.00002L2.49974 5.00002C2.50011 4.61253 2.50266 4.34765 2.51962 4.14006C2.53811 3.91368 2.56951 3.82974 2.5905 3.78854C2.6704 3.63174 2.79788 3.50426 2.95468 3.42436C2.99589 3.40337 3.07982 3.37197 3.30621 3.35347C3.54232 3.33418 3.85255 3.33353 4.33301 3.33353H7.51825Z" fill="currentColor"/>
</svg>
