<svg width="20" height="20" viewBox="0 0 20 20" fill="none" xmlns="http://www.w3.org/2000/svg">
<path fill-rule="evenodd" clip-rule="evenodd" d="M9.99967 0.833374C4.93706 0.833374 0.833008 4.93743 0.833008 10C0.833008 15.0626 4.93706 19.1667 9.99967 19.1667C15.0623 19.1667 19.1663 15.0626 19.1663 10C19.1663 4.93743 15.0623 0.833374 9.99967 0.833374ZM9.08853 6.89273C9.42787 6.6933 9.82683 6.6204 10.2148 6.68694C10.6027 6.75348 10.9546 6.95517 11.208 7.25628C11.4615 7.5574 11.6003 7.9385 11.5997 8.3321L11.5997 8.33334C11.5997 8.72429 11.2954 9.13186 10.7208 9.51497C10.4588 9.68961 10.1909 9.82416 9.98518 9.91558C9.88351 9.96076 9.79995 9.99413 9.74376 10.0155C9.71883 10.025 9.69378 10.0342 9.66861 10.0431C9.23255 10.1889 8.99699 10.6605 9.14243 11.0969C9.28797 11.5335 9.75991 11.7694 10.1965 11.6239L10.3371 11.573C10.4176 11.5423 10.5294 11.4976 10.6621 11.4386C10.9251 11.3217 11.2822 11.1437 11.6453 10.9017C12.3205 10.4516 13.266 9.6094 13.2663 8.3341C13.2674 7.54707 12.9899 6.78505 12.4831 6.18295C11.9761 5.58072 11.2724 5.17734 10.4965 5.04426C9.72066 4.91118 8.92273 5.05698 8.24406 5.45584C7.56539 5.8547 7.04978 6.48088 6.78856 7.22347C6.63583 7.65763 6.86398 8.13339 7.29813 8.28612C7.73229 8.43885 8.20805 8.2107 8.36078 7.77654C8.49139 7.40525 8.7492 7.09216 9.08853 6.89273ZM9.99967 13.3333C9.53943 13.3333 9.16634 13.7064 9.16634 14.1667C9.16634 14.6269 9.53943 15 9.99967 15H10.008C10.4682 15 10.8413 14.6269 10.8413 14.1667C10.8413 13.7064 10.4682 13.3333 10.008 13.3333H9.99967Z" fill="currentColor"/>
</svg>
