<svg width="20" height="20" viewBox="0 0 20 20" fill="none" xmlns="http://www.w3.org/2000/svg">
<ellipse cx="14.9997" cy="3.33335" rx="1.66667" ry="1.66667" fill="currentColor" stroke="currentColor" stroke-width="1.5" stroke-linecap="round" stroke-linejoin="round"/>
<ellipse cx="4.16667" cy="15" rx="1.66667" ry="1.66667" fill="currentColor" stroke="currentColor" stroke-width="1.5" stroke-linecap="round" stroke-linejoin="round"/>
<ellipse cx="3.75" cy="4.58331" rx="1.25" ry="1.25" fill="currentColor" stroke="currentColor" stroke-width="1.5" stroke-linecap="round" stroke-linejoin="round"/>
<circle cx="16.2503" cy="16.25" r="2.08333" fill="currentColor" stroke="currentColor" stroke-width="1.5" stroke-linecap="round" stroke-linejoin="round"/>
<path d="M12.2859 8.17765C11.7798 7.75461 11.1279 7.5 10.4167 7.5C9.49809 7.5 8.6787 7.92464 8.14407 8.58832M12.2859 8.17765C12.9261 8.71268 13.3333 9.51712 13.3333 10.4167C13.3333 11.0364 13.1401 11.6109 12.8105 12.0833M12.2859 8.17765L14.1667 5M5 5.83333L8.14407 8.58832M8.14407 8.58832C7.74117 9.08848 7.5 9.72441 7.5 10.4167C7.5 11.2328 7.83519 11.9706 8.37542 12.5M5.41667 13.75L8.37542 12.5M8.37542 12.5C8.90148 13.0155 9.62196 13.3333 10.4167 13.3333C11.4078 13.3333 12.2835 12.839 12.8105 12.0833M14.5833 14.5833L12.8105 12.0833" stroke="currentColor" stroke-width="1.5" stroke-linecap="round" stroke-linejoin="round"/>
</svg>
