<svg width="20" height="20" viewBox="0 0 20 20" fill="none" xmlns="http://www.w3.org/2000/svg">
<g id="search-lg">
<path id="Solid" fill-rule="evenodd" clip-rule="evenodd" d="M9.58366 1.66666C5.2114 1.66666 1.66699 5.21107 1.66699 9.58332C1.66699 13.9556 5.2114 17.5 9.58366 17.5C11.4696 17.5 13.2015 16.8405 14.5614 15.7396L16.9111 18.0892C17.2365 18.4147 17.7641 18.4147 18.0896 18.0892C18.415 17.7638 18.415 17.2362 18.0896 16.9107L15.7399 14.5611C16.8409 13.2012 17.5003 11.4693 17.5003 9.58332C17.5003 5.21107 13.9559 1.66666 9.58366 1.66666ZM3.33366 9.58332C3.33366 6.13154 6.13188 3.33332 9.58366 3.33332C13.0354 3.33332 15.8337 6.13154 15.8337 9.58332C15.8337 13.0351 13.0354 15.8333 9.58366 15.8333C6.13188 15.8333 3.33366 13.0351 3.33366 9.58332Z" fill="currentColor"/>
</g>
</svg>
